<svg width="395" height="70" viewBox="0 0 395 70" fill="none" xmlns="http://www.w3.org/2000/svg">
<path d="M118.269 17.3888V24.5212H108.586V53.9361H99.6835V24.5212H90V17.3888H118.269Z" fill="#0D276A"/>
<path d="M137.939 54.3006C134.503 54.3006 131.345 53.5023 128.464 51.9057C125.618 50.3092 123.345 48.0879 121.644 45.2418C119.978 42.3611 119.145 39.1332 119.145 35.5583C119.145 31.9834 119.978 28.773 121.644 25.9269C123.345 23.0809 125.618 20.8596 128.464 19.263C131.345 17.6664 134.503 16.8682 137.939 16.8682C141.376 16.8682 144.517 17.6664 147.363 19.263C150.243 20.8596 152.499 23.0809 154.131 25.9269C155.797 28.773 156.63 31.9834 156.63 35.5583C156.63 39.1332 155.797 42.3611 154.131 45.2418C152.465 48.0879 150.209 50.3092 147.363 51.9057C144.517 53.5023 141.376 54.3006 137.939 54.3006ZM137.939 46.1789C140.855 46.1789 143.18 45.2071 144.916 43.2635C146.686 41.3198 147.571 38.7515 147.571 35.5583C147.571 32.3305 146.686 29.7621 144.916 27.8532C143.18 25.9096 140.855 24.9377 137.939 24.9377C134.989 24.9377 132.629 25.8922 130.859 27.8011C129.124 29.7101 128.256 32.2958 128.256 35.5583C128.256 38.7862 129.124 41.3719 130.859 43.3155C132.629 45.2245 134.989 46.1789 137.939 46.1789Z" fill="#0D276A"/>
<path d="M188.394 29.1547C188.394 31.2719 187.908 33.2156 186.936 34.9857C185.965 36.721 184.472 38.1267 182.459 39.2027C180.446 40.2786 177.947 40.8166 174.962 40.8166H169.444V53.9361H160.541V17.3888H174.962C177.878 17.3888 180.342 17.892 182.355 18.8986C184.368 19.9051 185.878 21.2934 186.884 23.0635C187.891 24.8336 188.394 26.864 188.394 29.1547ZM174.285 33.7362C175.986 33.7362 177.253 33.337 178.086 32.5388C178.919 31.7405 179.335 30.6125 179.335 29.1547C179.335 27.697 178.919 26.569 178.086 25.7707C177.253 24.9724 175.986 24.5733 174.285 24.5733H169.444V33.7362H174.285Z" fill="#0D276A"/>
<path d="M200.89 47.064H212.552V53.9361H191.988V17.3888H200.89V47.064Z" fill="#0D276A"/>
<path d="M224.66 17.3888V53.9361H215.757V17.3888H224.66Z" fill="#0D276A"/>
<path d="M262.765 53.9361H253.862L238.972 31.3934V53.9361H230.07V17.3888H238.972L253.862 40.0356V17.3888H262.765V53.9361Z" fill="#0D276A"/>
<path d="M277.079 24.5212V31.914H289.001V38.7862H277.079V46.8037H290.563V53.9361H268.177V17.3888H290.563V24.5212H277.079Z" fill="#0D276A"/>
<path d="M326.051 28.023C326.051 31.1467 325.027 33.663 322.979 35.572C320.931 37.4809 317.859 38.4353 313.764 38.4353H306.423V53.9497H302.779V17.5586H313.764C317.825 17.5586 320.879 18.513 322.927 20.422C325.009 22.3309 326.051 24.8646 326.051 28.023ZM313.764 35.3116C319.456 35.3116 322.302 32.8821 322.302 28.023C322.302 25.5934 321.625 23.7539 320.272 22.5044C318.918 21.255 316.749 20.6302 313.764 20.6302H306.423V35.3116H313.764Z" fill="#0D276A"/>
<path d="M350.491 53.9497L341.484 38.7477H334.768V53.9497H331.124V17.5586H342.057C346.118 17.5586 349.19 18.5304 351.272 20.474C353.389 22.4177 354.448 24.9687 354.448 28.1271C354.448 30.7649 353.684 33.0209 352.157 34.8951C350.665 36.7347 348.443 37.9321 345.493 38.4874L354.864 53.9497H350.491ZM334.768 35.7802H342.109C344.955 35.7802 347.09 35.086 348.513 33.6977C349.97 32.3094 350.699 30.4525 350.699 28.1271C350.699 25.7323 350.005 23.8928 348.617 22.6086C347.229 21.2897 345.042 20.6302 342.057 20.6302H334.768V35.7802Z" fill="#0D276A"/>
<path d="M376.986 54.3142C373.619 54.3142 370.565 53.5333 367.823 51.9714C365.081 50.3748 362.912 48.1709 361.315 45.3596C359.754 42.5135 358.973 39.303 358.973 35.7281C358.973 32.1532 359.754 28.9601 361.315 26.1488C362.912 23.3027 365.081 21.0988 367.823 19.5369C370.565 17.9404 373.619 17.1421 376.986 17.1421C380.387 17.1421 383.459 17.9404 386.201 19.5369C388.943 21.0988 391.095 23.3027 392.657 26.1488C394.218 28.9601 394.999 32.1532 394.999 35.7281C394.999 39.303 394.218 42.5135 392.657 45.3596C391.095 48.1709 388.943 50.3748 386.201 51.9714C383.459 53.5333 380.387 54.3142 376.986 54.3142ZM376.986 51.1384C379.693 51.1384 382.123 50.5137 384.275 49.2642C386.427 48.0147 388.127 46.2273 389.377 43.9018C390.626 41.5417 391.251 38.8171 391.251 35.7281C391.251 32.6391 390.626 29.9319 389.377 27.6065C388.127 25.2811 386.427 23.4936 384.275 22.2441C382.123 20.9947 379.693 20.3699 376.986 20.3699C374.279 20.3699 371.849 20.9947 369.697 22.2441C367.546 23.4936 365.845 25.2811 364.595 27.6065C363.346 29.9319 362.721 32.6391 362.721 35.7281C362.721 38.8171 363.346 41.5417 364.595 43.9018C365.845 46.2273 367.546 48.0147 369.697 49.2642C371.849 50.5137 374.279 51.1384 376.986 51.1384Z" fill="#0D276A"/>
<circle cx="35" cy="35" r="35" fill="#E64D3D"/>
<path d="M19.2016 25.9779C19.1763 25.2523 19.744 24.6435 20.4696 24.6182L33.5922 24.1599C34.5151 24.1277 35.1827 25.0322 34.88 25.9047L25.3997 53.2274C25.2216 53.7405 24.7464 54.0913 24.2036 54.1103L21.5027 54.2046C20.7771 54.23 20.1684 53.6623 20.1431 52.9367L19.2016 25.9779Z" fill="white"/>
<path d="M49.7282 45.2277C49.7535 45.9533 49.1858 46.562 48.4603 46.5874L35.3377 47.0456C34.4147 47.0779 33.7471 46.1734 34.0498 45.3009L43.5301 17.9781C43.7082 17.465 44.1834 17.1142 44.7262 17.0953L47.4271 17.001C48.1527 16.9756 48.7614 17.5433 48.7867 18.2689L49.7282 45.2277Z" fill="white" fill-opacity="0.7"/>
</svg>
