<svg width="1851" height="384" viewBox="0 0 1851 384" fill="none" xmlns="http://www.w3.org/2000/svg">
<path d="M0 79C0 74.5817 3.58172 71 8 71H161.33C166.95 71 170.819 76.6426 168.792 81.8846L53.9775 378.885C52.7857 381.967 49.8208 384 46.5157 384H8C3.58172 384 0 380.418 0 376V79Z" fill="#E64D3D"/>
<path d="M301 305C301 309.418 297.418 313 293 313H139.67C134.05 313 130.181 307.357 132.208 302.115L247.022 5.11539C248.214 2.03253 251.179 0 254.484 0H293C297.418 0 301 3.58173 301 8V305Z" fill="#0D276A"/>
<path d="M452 299H490.4V224.9H524.9C566.9 224.9 596.9 197.9 596.9 158.9C596.9 119.9 566.9 92.6 524.9 92.6H452V299ZM490.4 123.8H519.5C541.7 123.8 557.3 137.9 557.3 158.9C557.3 179.6 541.7 193.7 519.5 193.7H490.4V123.8ZM634.813 299H673.213V198.8C683.113 186.2 696.613 179.3 709.213 179.3C713.713 179.3 718.513 179.9 722.713 181.1V146.9C718.513 145.7 714.313 145.4 710.113 145.4C697.213 145.4 684.013 152 673.213 164V149H634.813V299ZM742.527 224C742.527 269.9 774.627 302.6 819.927 302.6C865.227 302.6 897.027 269.9 897.027 224C897.027 177.8 865.227 145.4 819.927 145.4C774.627 145.4 742.527 177.8 742.527 224ZM781.827 224C781.827 196.4 797.427 177.5 819.927 177.5C842.127 177.5 857.727 196.4 857.727 224C857.727 251.6 842.127 270.5 819.927 270.5C797.427 270.5 781.827 251.6 781.827 224Z" fill="#E64D3D"/>
<path d="M940.801 299H979.201V224.9H1013.7C1055.7 224.9 1085.7 197.9 1085.7 158.9C1085.7 119.9 1055.7 92.6 1013.7 92.6H940.801V299ZM979.201 123.8H1008.3C1030.5 123.8 1046.1 137.9 1046.1 158.9C1046.1 179.6 1030.5 193.7 1008.3 193.7H979.201V123.8ZM1123.61 299H1162.01V194.9C1171.91 184.4 1183.01 179 1194.11 179C1209.71 179 1220.51 190.4 1220.51 206.3V299H1259.21V199.4C1259.21 167.6 1237.01 145.4 1205.81 145.4C1190.51 145.4 1175.51 151.1 1162.01 161.9V83.3H1123.61V299ZM1295.49 224C1295.49 269.9 1327.59 302.6 1372.89 302.6C1418.19 302.6 1449.99 269.9 1449.99 224C1449.99 177.8 1418.19 145.4 1372.89 145.4C1327.59 145.4 1295.49 177.8 1295.49 224ZM1334.79 224C1334.79 196.4 1350.39 177.5 1372.89 177.5C1395.09 177.5 1410.69 196.4 1410.69 224C1410.69 251.6 1395.09 270.5 1372.89 270.5C1350.39 270.5 1334.79 251.6 1334.79 224ZM1487.76 299H1526.16V194.9C1536.06 184.4 1547.16 179 1558.26 179C1573.86 179 1584.66 190.4 1584.66 206.3V299H1623.36V199.4C1623.36 167.6 1601.16 145.4 1569.96 145.4C1554.66 145.4 1539.66 151.1 1526.16 161.9V149H1487.76V299ZM1659.64 222.8C1659.64 269.6 1691.44 302.6 1736.74 302.6C1753.54 302.6 1770.64 298.7 1787.74 290.9V258.8C1772.14 267.8 1756.84 272.9 1743.04 272.9C1717.84 272.9 1699.84 257.3 1697.44 234.5H1799.14C1799.74 229.4 1799.74 224.6 1799.74 220.4C1799.74 176.3 1773.04 145.4 1733.74 145.4C1690.84 145.4 1659.64 177.5 1659.64 222.8ZM1697.44 209.6C1699.24 188.9 1713.64 175.1 1732.24 175.1C1749.34 175.1 1761.64 189.2 1762.84 209.6H1697.44Z" fill="#0D276A"/>
</svg>
